<svg width="800" height="120" xmlns="http://www.w3.org/2000/svg">
<style>.day{outline:1px solid rgba(27,31,35,0.06);}text{font:9px sans-serif;fill:#768390;}</style>
<g transform="translate(10,10)">
<text y="34">Mon</text>
<text y="62">Wed</text>
<text y="90">Fri</text>
<rect class="day" width="11" height="11" x="30" y="15" fill="#ebedf0"><title>2025-01-05: 0 commits</title></rect>
<rect class="day" width="11" height="11" x="30" y="29" fill="#9be9a8"><title>2025-01-06: 1 commits</title></rect>
<rect class="day" width="11" height="11" x="30" y="43" fill="#9be9a8"><title>2025-01-07: 1 commits</title></rect>
<rect class="day" width="11" height="11" x="30" y="57" fill="#9be9a8"><title>2025-01-08: 1 commits</title></rect>
<rect class="day" width="11" height="11" x="30" y="71" fill="#9be9a8"><title>2025-01-09: 1 commits</title></rect>
<rect class="day" width="11" height="11" x="30" y="85" fill="#9be9a8"><title>2025-01-10: 1 commits</title></rect>
<rect class="day" width="11" height="11" x="30" y="99" fill="#9be9a8"><title>2025-01-11: 1 commits</title></rect>
<rect class="day" width="11" height="11" x="44" y="15" fill="#ebedf0"><title>2025-01-12: 0 commits</title></rect>
<rect class="day" width="11" height="11" x="44" y="29" fill="#9be9a8"><title>2025-01-13: 1 commits</title></rect>
<rect class="day" width="11" height="11" x="44" y="43" fill="#9be9a8"><title>2025-01-14: 1 commits</title></rect>
<rect class="day" width="11" height="11" x="44" y="57" fill="#9be9a8"><title>2025-01-15: 1 commits</title></rect>
<rect class="day" width="11" height="11" x="44" y="71" fill="#9be9a8"><title>2025-01-16: 1 commits</title></rect>
<rect class="day" width="11" height="11" x="44" y="85" fill="#9be9a8"><title>2025-01-17: 1 commits</title></rect>
<rect class="day" width="11" height="11" x="44" y="99" fill="#9be9a8"><title>2025-01-18: 1 commits</title></rect>
<rect class="day" width="11" height="11" x="58" y="15" fill="#9be9a8"><title>2025-01-19: 1 commits</title></rect>
<rect class="day" width="11" height="11" x="58" y="29" fill="#9be9a8"><title>2025-01-20: 1 commits</title></rect>
<rect class="day" width="11" height="11" x="58" y="43" fill="#9be9a8"><title>2025-01-21: 1 commits</title></rect>
<rect class="day" width="11" height="11" x="58" y="57" fill="#9be9a8"><title>2025-01-22: 1 commits</title></rect>
<rect class="day" width="11" height="11" x="58" y="71" fill="#9be9a8"><title>2025-01-23: 1 commits</title></rect>
<rect class="day" width="11" height="11" x="58" y="85" fill="#9be9a8"><title>2025-01-24: 1 commits</title></rect>
<rect class="day" width="11" height="11" x="58" y="99" fill="#9be9a8"><title>2025-01-25: 1 commits</title></rect>
<rect class="day" width="11" height="11" x="72" y="15" fill="#ebedf0"><title>2025-01-26: 0 commits</title></rect>
<rect class="day" width="11" height="11" x="72" y="29" fill="#9be9a8"><title>2025-01-27: 1 commits</title></rect>
<rect class="day" width="11" height="11" x="72" y="43" fill="#9be9a8"><title>2025-01-28: 1 commits</title></rect>
<rect class="day" width="11" height="11" x="72" y="57" fill="#9be9a8"><title>2025-01-29: 1 commits</title></rect>
<rect class="day" width="11" height="11" x="72" y="71" fill="#9be9a8"><title>2025-01-30: 1 commits</title></rect>
<rect class="day" width="11" height="11" x="72" y="85" fill="#9be9a8"><title>2025-01-31: 1 commits</title></rect>
<rect class="day" width="11" height="11" x="72" y="99" fill="#9be9a8"><title>2025-02-01: 1 commits</title></rect>
<rect class="day" width="11" height="11" x="86" y="15" fill="#ebedf0"><title>2025-02-02: 0 commits</title></rect>
<rect class="day" width="11" height="11" x="86" y="29" fill="#ebedf0"><title>2025-02-03: 0 commits</title></rect>
<rect class="day" width="11" height="11" x="86" y="43" fill="#ebedf0"><title>2025-02-04: 0 commits</title></rect>
<rect class="day" width="11" height="11" x="86" y="57" fill="#ebedf0"><title>2025-02-05: 0 commits</title></rect>
<rect class="day" width="11" height="11" x="86" y="71" fill="#ebedf0"><title>2025-02-06: 0 commits</title></rect>
<rect class="day" width="11" height="11" x="86" y="85" fill="#ebedf0"><title>2025-02-07: 0 commits</title></rect>
<rect class="day" width="11" height="11" x="86" y="99" fill="#ebedf0"><title>2025-02-08: 0 commits</title></rect>
<rect class="day" width="11" height="11" x="100" y="15" fill="#ebedf0"><title>2025-02-09: 0 commits</title></rect>
<rect class="day" width="11" height="11" x="100" y="29" fill="#ebedf0"><title>2025-02-10: 0 commits</title></rect>
<rect class="day" width="11" height="11" x="100" y="43" fill="#ebedf0"><title>2025-02-11: 0 commits</title></rect>
<rect class="day" width="11" height="11" x="100" y="57" fill="#ebedf0"><title>2025-02-12: 0 commits</title></rect>
<rect class="day" width="11" height="11" x="100" y="71" fill="#ebedf0"><title>2025-02-13: 0 commits</title></rect>
<rect class="day" width="11" height="11" x="100" y="85" fill="#ebedf0"><title>2025-02-14: 0 commits</title></rect>
<rect class="day" width="11" height="11" x="100" y="99" fill="#ebedf0"><title>2025-02-15: 0 commits</title></rect>
<rect class="day" width="11" height="11" x="114" y="15" fill="#ebedf0"><title>2025-02-16: 0 commits</title></rect>
<rect class="day" width="11" height="11" x="114" y="29" fill="#ebedf0"><title>2025-02-17: 0 commits</title></rect>
<rect class="day" width="11" height="11" x="114" y="43" fill="#ebedf0"><title>2025-02-18: 0 commits</title></rect>
<rect class="day" width="11" height="11" x="114" y="57" fill="#ebedf0"><title>2025-02-19: 0 commits</title></rect>
<rect class="day" width="11" height="11" x="114" y="71" fill="#ebedf0"><title>2025-02-20: 0 commits</title></rect>
<rect class="day" width="11" height="11" x="114" y="85" fill="#ebedf0"><title>2025-02-21: 0 commits</title></rect>
<rect class="day" width="11" height="11" x="114" y="99" fill="#ebedf0"><title>2025-02-22: 0 commits</title></rect>
<rect class="day" width="11" height="11" x="128" y="15" fill="#ebedf0"><title>2025-02-23: 0 commits</title></rect>
<rect class="day" width="11" height="11" x="128" y="29" fill="#ebedf0"><title>2025-02-24: 0 commits</title></rect>
<rect class="day" width="11" height="11" x="128" y="43" fill="#9be9a8"><title>2025-02-25: 1 commits</title></rect>
<rect class="day" width="11" height="11" x="128" y="57" fill="#40c463"><title>2025-02-26: 4 commits</title></rect>
<rect class="day" width="11" height="11" x="128" y="71" fill="#9be9a8"><title>2025-02-27: 1 commits</title></rect>
<rect class="day" width="11" height="11" x="128" y="85" fill="#ebedf0"><title>2025-02-28: 0 commits</title></rect>
<rect class="day" width="11" height="11" x="128" y="99" fill="#ebedf0"><title>2025-03-01: 0 commits</title></rect>
<rect class="day" width="11" height="11" x="142" y="15" fill="#9be9a8"><title>2025-03-02: 1 commits</title></rect>
<rect class="day" width="11" height="11" x="142" y="29" fill="#ebedf0"><title>2025-03-03: 0 commits</title></rect>
<rect class="day" width="11" height="11" x="142" y="43" fill="#40c463"><title>2025-03-04: 4 commits</title></rect>
<rect class="day" width="11" height="11" x="142" y="57" fill="#9be9a8"><title>2025-03-05: 1 commits</title></rect>
<rect class="day" width="11" height="11" x="142" y="71" fill="#9be9a8"><title>2025-03-06: 1 commits</title></rect>
<rect class="day" width="11" height="11" x="142" y="85" fill="#40c463"><title>2025-03-07: 4 commits</title></rect>
<rect class="day" width="11" height="11" x="142" y="99" fill="#ebedf0"><title>2025-03-08: 0 commits</title></rect>
<rect class="day" width="11" height="11" x="156" y="15" fill="#ebedf0"><title>2025-03-09: 0 commits</title></rect>
<rect class="day" width="11" height="11" x="156" y="29" fill="#ebedf0"><title>2025-03-10: 0 commits</title></rect>
<rect class="day" width="11" height="11" x="156" y="43" fill="#ebedf0"><title>2025-03-11: 0 commits</title></rect>
<rect class="day" width="11" height="11" x="156" y="57" fill="#ebedf0"><title>2025-03-12: 0 commits</title></rect>
<rect class="day" width="11" height="11" x="156" y="71" fill="#ebedf0"><title>2025-03-13: 0 commits</title></rect>
<rect class="day" width="11" height="11" x="156" y="85" fill="#ebedf0"><title>2025-03-14: 0 commits</title></rect>
<rect class="day" width="11" height="11" x="156" y="99" fill="#ebedf0"><title>2025-03-15: 0 commits</title></rect>
<rect class="day" width="11" height="11" x="170" y="15" fill="#ebedf0"><title>2025-03-16: 0 commits</title></rect>
<rect class="day" width="11" height="11" x="170" y="29" fill="#ebedf0"><title>2025-03-17: 0 commits</title></rect>
<rect class="day" width="11" height="11" x="170" y="43" fill="#ebedf0"><title>2025-03-18: 0 commits</title></rect>
<rect class="day" width="11" height="11" x="170" y="57" fill="#ebedf0"><title>2025-03-19: 0 commits</title></rect>
<rect class="day" width="11" height="11" x="170" y="71" fill="#ebedf0"><title>2025-03-20: 0 commits</title></rect>
<rect class="day" width="11" height="11" x="170" y="85" fill="#ebedf0"><title>2025-03-21: 0 commits</title></rect>
<rect class="day" width="11" height="11" x="170" y="99" fill="#ebedf0"><title>2025-03-22: 0 commits</title></rect>
<rect class="day" width="11" height="11" x="184" y="15" fill="#ebedf0"><title>2025-03-23: 0 commits</title></rect>
<rect class="day" width="11" height="11" x="184" y="29" fill="#ebedf0"><title>2025-03-24: 0 commits</title></rect>
<rect class="day" width="11" height="11" x="184" y="43" fill="#ebedf0"><title>2025-03-25: 0 commits</title></rect>
<rect class="day" width="11" height="11" x="184" y="57" fill="#ebedf0"><title>2025-03-26: 0 commits</title></rect>
<rect class="day" width="11" height="11" x="184" y="71" fill="#ebedf0"><title>2025-03-27: 0 commits</title></rect>
<rect class="day" width="11" height="11" x="184" y="85" fill="#9be9a8"><title>2025-03-28: 1 commits</title></rect>
<rect class="day" width="11" height="11" x="184" y="99" fill="#ebedf0"><title>2025-03-29: 0 commits</title></rect>
<rect class="day" width="11" height="11" x="198" y="15" fill="#ebedf0"><title>2025-03-30: 0 commits</title></rect>
<rect class="day" width="11" height="11" x="198" y="29" fill="#ebedf0"><title>2025-03-31: 0 commits</title></rect>
<rect class="day" width="11" height="11" x="198" y="43" fill="#9be9a8"><title>2025-04-01: 2 commits</title></rect>
<rect class="day" width="11" height="11" x="198" y="57" fill="#216e39"><title>2025-04-02: 13 commits</title></rect>
<rect class="day" width="11" height="11" x="198" y="71" fill="#ebedf0"><title>2025-04-03: 0 commits</title></rect>
<rect class="day" width="11" height="11" x="198" y="85" fill="#ebedf0"><title>2025-04-04: 0 commits</title></rect>
<rect class="day" width="11" height="11" x="198" y="99" fill="#9be9a8"><title>2025-04-05: 3 commits</title></rect>
<rect class="day" width="11" height="11" x="212" y="15" fill="#ebedf0"><title>2025-04-06: 0 commits</title></rect>
<rect class="day" width="11" height="11" x="212" y="29" fill="#ebedf0"><title>2025-04-07: 0 commits</title></rect>
<rect class="day" width="11" height="11" x="212" y="43" fill="#ebedf0"><title>2025-04-08: 0 commits</title></rect>
<rect class="day" width="11" height="11" x="212" y="57" fill="#ebedf0"><title>2025-04-09: 0 commits</title></rect>
<rect class="day" width="11" height="11" x="212" y="71" fill="#ebedf0"><title>2025-04-10: 0 commits</title></rect>
<rect class="day" width="11" height="11" x="212" y="85" fill="#ebedf0"><title>2025-04-11: 0 commits</title></rect>
<rect class="day" width="11" height="11" x="212" y="99" fill="#ebedf0"><title>2025-04-12: 0 commits</title></rect>
<rect class="day" width="11" height="11" x="226" y="15" fill="#ebedf0"><title>2025-04-13: 0 commits</title></rect>
<rect class="day" width="11" height="11" x="226" y="29" fill="#ebedf0"><title>2025-04-14: 0 commits</title></rect>
<rect class="day" width="11" height="11" x="226" y="43" fill="#ebedf0"><title>2025-04-15: 0 commits</title></rect>
<rect class="day" width="11" height="11" x="226" y="57" fill="#9be9a8"><title>2025-04-16: 2 commits</title></rect>
<rect class="day" width="11" height="11" x="226" y="71" fill="#ebedf0"><title>2025-04-17: 0 commits</title></rect>
<rect class="day" width="11" height="11" x="226" y="85" fill="#ebedf0"><title>2025-04-18: 0 commits</title></rect>
<rect class="day" width="11" height="11" x="226" y="99" fill="#ebedf0"><title>2025-04-19: 0 commits</title></rect>
<rect class="day" width="11" height="11" x="240" y="15" fill="#ebedf0"><title>2025-04-20: 0 commits</title></rect>
<rect class="day" width="11" height="11" x="240" y="29" fill="#9be9a8"><title>2025-04-21: 1 commits</title></rect>
<rect class="day" width="11" height="11" x="240" y="43" fill="#ebedf0"><title>2025-04-22: 0 commits</title></rect>
<rect class="day" width="11" height="11" x="240" y="57" fill="#ebedf0"><title>2025-04-23: 0 commits</title></rect>
<rect class="day" width="11" height="11" x="240" y="71" fill="#ebedf0"><title>2025-04-24: 0 commits</title></rect>
<rect class="day" width="11" height="11" x="240" y="85" fill="#9be9a8"><title>2025-04-25: 1 commits</title></rect>
<rect class="day" width="11" height="11" x="240" y="99" fill="#ebedf0"><title>2025-04-26: 0 commits</title></rect>
<rect class="day" width="11" height="11" x="254" y="15" fill="#ebedf0"><title>2025-04-27: 0 commits</title></rect>
<rect class="day" width="11" height="11" x="254" y="29" fill="#ebedf0"><title>2025-04-28: 0 commits</title></rect>
<rect class="day" width="11" height="11" x="254" y="43" fill="#ebedf0"><title>2025-04-29: 0 commits</title></rect>
<rect class="day" width="11" height="11" x="254" y="57" fill="#ebedf0"><title>2025-04-30: 0 commits</title></rect>
<rect class="day" width="11" height="11" x="254" y="71" fill="#ebedf0"><title>2025-05-01: 0 commits</title></rect>
<rect class="day" width="11" height="11" x="254" y="85" fill="#30a14e"><title>2025-05-02: 8 commits</title></rect>
<rect class="day" width="11" height="11" x="254" y="99" fill="#40c463"><title>2025-05-03: 4 commits</title></rect>
<rect class="day" width="11" height="11" x="268" y="15" fill="#ebedf0"><title>2025-05-04: 0 commits</title></rect>
<rect class="day" width="11" height="11" x="268" y="29" fill="#ebedf0"><title>2025-05-05: 0 commits</title></rect>
<rect class="day" width="11" height="11" x="268" y="43" fill="#ebedf0"><title>2025-05-06: 0 commits</title></rect>
<rect class="day" width="11" height="11" x="268" y="57" fill="#ebedf0"><title>2025-05-07: 0 commits</title></rect>
<rect class="day" width="11" height="11" x="268" y="71" fill="#ebedf0"><title>2025-05-08: 0 commits</title></rect>
<rect class="day" width="11" height="11" x="268" y="85" fill="#9be9a8"><title>2025-05-09: 2 commits</title></rect>
<rect class="day" width="11" height="11" x="268" y="99" fill="#ebedf0"><title>2025-05-10: 0 commits</title></rect>
<rect class="day" width="11" height="11" x="282" y="15" fill="#ebedf0"><title>2025-05-11: 0 commits</title></rect>
<rect class="day" width="11" height="11" x="282" y="29" fill="#ebedf0"><title>2025-05-12: 0 commits</title></rect>
<rect class="day" width="11" height="11" x="282" y="43" fill="#ebedf0"><title>2025-05-13: 0 commits</title></rect>
<rect class="day" width="11" height="11" x="282" y="57" fill="#ebedf0"><title>2025-05-14: 0 commits</title></rect>
<rect class="day" width="11" height="11" x="282" y="71" fill="#ebedf0"><title>2025-05-15: 0 commits</title></rect>
<rect class="day" width="11" height="11" x="282" y="85" fill="#ebedf0"><title>2025-05-16: 0 commits</title></rect>
<rect class="day" width="11" height="11" x="282" y="99" fill="#ebedf0"><title>2025-05-17: 0 commits</title></rect>
<rect class="day" width="11" height="11" x="296" y="15" fill="#ebedf0"><title>2025-05-18: 0 commits</title></rect>
<rect class="day" width="11" height="11" x="296" y="29" fill="#ebedf0"><title>2025-05-19: 0 commits</title></rect>
<rect class="day" width="11" height="11" x="296" y="43" fill="#ebedf0"><title>2025-05-20: 0 commits</title></rect>
<rect class="day" width="11" height="11" x="296" y="57" fill="#ebedf0"><title>2025-05-21: 0 commits</title></rect>
<rect class="day" width="11" height="11" x="296" y="71" fill="#ebedf0"><title>2025-05-22: 0 commits</title></rect>
<rect class="day" width="11" height="11" x="296" y="85" fill="#ebedf0"><title>2025-05-23: 0 commits</title></rect>
<rect class="day" width="11" height="11" x="296" y="99" fill="#ebedf0"><title>2025-05-24: 0 commits</title></rect>
<rect class="day" width="11" height="11" x="310" y="15" fill="#ebedf0"><title>2025-05-25: 0 commits</title></rect>
<rect class="day" width="11" height="11" x="310" y="29" fill="#ebedf0"><title>2025-05-26: 0 commits</title></rect>
<rect class="day" width="11" height="11" x="310" y="43" fill="#ebedf0"><title>2025-05-27: 0 commits</title></rect>
<rect class="day" width="11" height="11" x="310" y="57" fill="#ebedf0"><title>2025-05-28: 0 commits</title></rect>
<rect class="day" width="11" height="11" x="310" y="71" fill="#ebedf0"><title>2025-05-29: 0 commits</title></rect>
<rect class="day" width="11" height="11" x="310" y="85" fill="#ebedf0"><title>2025-05-30: 0 commits</title></rect>
<rect class="day" width="11" height="11" x="310" y="99" fill="#ebedf0"><title>2025-05-31: 0 commits</title></rect>
<rect class="day" width="11" height="11" x="324" y="15" fill="#ebedf0"><title>2025-06-01: 0 commits</title></rect>
<rect class="day" width="11" height="11" x="324" y="29" fill="#ebedf0"><title>2025-06-02: 0 commits</title></rect>
<rect class="day" width="11" height="11" x="324" y="43" fill="#ebedf0"><title>2025-06-03: 0 commits</title></rect>
<rect class="day" width="11" height="11" x="324" y="57" fill="#ebedf0"><title>2025-06-04: 0 commits</title></rect>
<rect class="day" width="11" height="11" x="324" y="71" fill="#ebedf0"><title>2025-06-05: 0 commits</title></rect>
<rect class="day" width="11" height="11" x="324" y="85" fill="#ebedf0"><title>2025-06-06: 0 commits</title></rect>
<rect class="day" width="11" height="11" x="324" y="99" fill="#ebedf0"><title>2025-06-07: 0 commits</title></rect>
<rect class="day" width="11" height="11" x="338" y="15" fill="#ebedf0"><title>2025-06-08: 0 commits</title></rect>
<rect class="day" width="11" height="11" x="338" y="29" fill="#ebedf0"><title>2025-06-09: 0 commits</title></rect>
<rect class="day" width="11" height="11" x="338" y="43" fill="#ebedf0"><title>2025-06-10: 0 commits</title></rect>
<rect class="day" width="11" height="11" x="338" y="57" fill="#ebedf0"><title>2025-06-11: 0 commits</title></rect>
<rect class="day" width="11" height="11" x="338" y="71" fill="#ebedf0"><title>2025-06-12: 0 commits</title></rect>
<rect class="day" width="11" height="11" x="338" y="85" fill="#ebedf0"><title>2025-06-13: 0 commits</title></rect>
<rect class="day" width="11" height="11" x="338" y="99" fill="#ebedf0"><title>2025-06-14: 0 commits</title></rect>
<rect class="day" width="11" height="11" x="352" y="15" fill="#ebedf0"><title>2025-06-15: 0 commits</title></rect>
<rect class="day" width="11" height="11" x="352" y="29" fill="#ebedf0"><title>2025-06-16: 0 commits</title></rect>
<rect class="day" width="11" height="11" x="352" y="43" fill="#9be9a8"><title>2025-06-17: 1 commits</title></rect>
<rect class="day" width="11" height="11" x="352" y="57" fill="#ebedf0"><title>2025-06-18: 0 commits</title></rect>
<rect class="day" width="11" height="11" x="352" y="71" fill="#ebedf0"><title>2025-06-19: 0 commits</title></rect>
<rect class="day" width="11" height="11" x="352" y="85" fill="#ebedf0"><title>2025-06-20: 0 commits</title></rect>
<rect class="day" width="11" height="11" x="352" y="99" fill="#ebedf0"><title>2025-06-21: 0 commits</title></rect>
<rect class="day" width="11" height="11" x="366" y="15" fill="#ebedf0"><title>2025-06-22: 0 commits</title></rect>
<rect class="day" width="11" height="11" x="366" y="29" fill="#ebedf0"><title>2025-06-23: 0 commits</title></rect>
<rect class="day" width="11" height="11" x="366" y="43" fill="#ebedf0"><title>2025-06-24: 0 commits</title></rect>
<rect class="day" width="11" height="11" x="366" y="57" fill="#ebedf0"><title>2025-06-25: 0 commits</title></rect>
<rect class="day" width="11" height="11" x="366" y="71" fill="#ebedf0"><title>2025-06-26: 0 commits</title></rect>
<rect class="day" width="11" height="11" x="366" y="85" fill="#ebedf0"><title>2025-06-27: 0 commits</title></rect>
<rect class="day" width="11" height="11" x="366" y="99" fill="#ebedf0"><title>2025-06-28: 0 commits</title></rect>
<rect class="day" width="11" height="11" x="380" y="15" fill="#ebedf0"><title>2025-06-29: 0 commits</title></rect>
<rect class="day" width="11" height="11" x="380" y="29" fill="#ebedf0"><title>2025-06-30: 0 commits</title></rect>
<rect class="day" width="11" height="11" x="380" y="43" fill="#ebedf0"><title>2025-07-01: 0 commits</title></rect>
<rect class="day" width="11" height="11" x="380" y="57" fill="#ebedf0"><title>2025-07-02: 0 commits</title></rect>
<rect class="day" width="11" height="11" x="380" y="71" fill="#ebedf0"><title>2025-07-03: 0 commits</title></rect>
<rect class="day" width="11" height="11" x="380" y="85" fill="#ebedf0"><title>2025-07-04: 0 commits</title></rect>
<rect class="day" width="11" height="11" x="380" y="99" fill="#ebedf0"><title>2025-07-05: 0 commits</title></rect>
<rect class="day" width="11" height="11" x="394" y="15" fill="#ebedf0"><title>2025-07-06: 0 commits</title></rect>
<rect class="day" width="11" height="11" x="394" y="29" fill="#ebedf0"><title>2025-07-07: 0 commits</title></rect>
<rect class="day" width="11" height="11" x="394" y="43" fill="#ebedf0"><title>2025-07-08: 0 commits</title></rect>
<rect class="day" width="11" height="11" x="394" y="57" fill="#ebedf0"><title>2025-07-09: 0 commits</title></rect>
<rect class="day" width="11" height="11" x="394" y="71" fill="#ebedf0"><title>2025-07-10: 0 commits</title></rect>
<rect class="day" width="11" height="11" x="394" y="85" fill="#ebedf0"><title>2025-07-11: 0 commits</title></rect>
<rect class="day" width="11" height="11" x="394" y="99" fill="#ebedf0"><title>2025-07-12: 0 commits</title></rect>
<rect class="day" width="11" height="11" x="408" y="15" fill="#ebedf0"><title>2025-07-13: 0 commits</title></rect>
<rect class="day" width="11" height="11" x="408" y="29" fill="#ebedf0"><title>2025-07-14: 0 commits</title></rect>
<rect class="day" width="11" height="11" x="408" y="43" fill="#ebedf0"><title>2025-07-15: 0 commits</title></rect>
<rect class="day" width="11" height="11" x="408" y="57" fill="#ebedf0"><title>2025-07-16: 0 commits</title></rect>
<rect class="day" width="11" height="11" x="408" y="71" fill="#ebedf0"><title>2025-07-17: 0 commits</title></rect>
<rect class="day" width="11" height="11" x="408" y="85" fill="#ebedf0"><title>2025-07-18: 0 commits</title></rect>
<rect class="day" width="11" height="11" x="408" y="99" fill="#ebedf0"><title>2025-07-19: 0 commits</title></rect>
<rect class="day" width="11" height="11" x="422" y="15" fill="#ebedf0"><title>2025-07-20: 0 commits</title></rect>
<rect class="day" width="11" height="11" x="422" y="29" fill="#ebedf0"><title>2025-07-21: 0 commits</title></rect>
<rect class="day" width="11" height="11" x="422" y="43" fill="#ebedf0"><title>2025-07-22: 0 commits</title></rect>
<rect class="day" width="11" height="11" x="422" y="57" fill="#ebedf0"><title>2025-07-23: 0 commits</title></rect>
<rect class="day" width="11" height="11" x="422" y="71" fill="#ebedf0"><title>2025-07-24: 0 commits</title></rect>
<rect class="day" width="11" height="11" x="422" y="85" fill="#ebedf0"><title>2025-07-25: 0 commits</title></rect>
<rect class="day" width="11" height="11" x="422" y="99" fill="#ebedf0"><title>2025-07-26: 0 commits</title></rect>
<rect class="day" width="11" height="11" x="436" y="15" fill="#ebedf0"><title>2025-07-27: 0 commits</title></rect>
<rect class="day" width="11" height="11" x="436" y="29" fill="#ebedf0"><title>2025-07-28: 0 commits</title></rect>
<rect class="day" width="11" height="11" x="436" y="43" fill="#ebedf0"><title>2025-07-29: 0 commits</title></rect>
<rect class="day" width="11" height="11" x="436" y="57" fill="#ebedf0"><title>2025-07-30: 0 commits</title></rect>
<rect class="day" width="11" height="11" x="436" y="71" fill="#ebedf0"><title>2025-07-31: 0 commits</title></rect>
<rect class="day" width="11" height="11" x="436" y="85" fill="#ebedf0"><title>2025-08-01: 0 commits</title></rect>
<rect class="day" width="11" height="11" x="436" y="99" fill="#ebedf0"><title>2025-08-02: 0 commits</title></rect>
<rect class="day" width="11" height="11" x="450" y="15" fill="#ebedf0"><title>2025-08-03: 0 commits</title></rect>
<rect class="day" width="11" height="11" x="450" y="29" fill="#ebedf0"><title>2025-08-04: 0 commits</title></rect>
<rect class="day" width="11" height="11" x="450" y="43" fill="#ebedf0"><title>2025-08-05: 0 commits</title></rect>
<rect class="day" width="11" height="11" x="450" y="57" fill="#ebedf0"><title>2025-08-06: 0 commits</title></rect>
<rect class="day" width="11" height="11" x="450" y="71" fill="#ebedf0"><title>2025-08-07: 0 commits</title></rect>
<rect class="day" width="11" height="11" x="450" y="85" fill="#ebedf0"><title>2025-08-08: 0 commits</title></rect>
<rect class="day" width="11" height="11" x="450" y="99" fill="#ebedf0"><title>2025-08-09: 0 commits</title></rect>
<rect class="day" width="11" height="11" x="464" y="15" fill="#ebedf0"><title>2025-08-10: 0 commits</title></rect>
<rect class="day" width="11" height="11" x="464" y="29" fill="#ebedf0"><title>2025-08-11: 0 commits</title></rect>
<rect class="day" width="11" height="11" x="464" y="43" fill="#ebedf0"><title>2025-08-12: 0 commits</title></rect>
<rect class="day" width="11" height="11" x="464" y="57" fill="#ebedf0"><title>2025-08-13: 0 commits</title></rect>
<rect class="day" width="11" height="11" x="464" y="71" fill="#ebedf0"><title>2025-08-14: 0 commits</title></rect>
<rect class="day" width="11" height="11" x="464" y="85" fill="#ebedf0"><title>2025-08-15: 0 commits</title></rect>
<rect class="day" width="11" height="11" x="464" y="99" fill="#ebedf0"><title>2025-08-16: 0 commits</title></rect>
<rect class="day" width="11" height="11" x="478" y="15" fill="#ebedf0"><title>2025-08-17: 0 commits</title></rect>
<rect class="day" width="11" height="11" x="478" y="29" fill="#ebedf0"><title>2025-08-18: 0 commits</title></rect>
<rect class="day" width="11" height="11" x="478" y="43" fill="#ebedf0"><title>2025-08-19: 0 commits</title></rect>
<rect class="day" width="11" height="11" x="478" y="57" fill="#ebedf0"><title>2025-08-20: 0 commits</title></rect>
<rect class="day" width="11" height="11" x="478" y="71" fill="#ebedf0"><title>2025-08-21: 0 commits</title></rect>
<rect class="day" width="11" height="11" x="478" y="85" fill="#ebedf0"><title>2025-08-22: 0 commits</title></rect>
<rect class="day" width="11" height="11" x="478" y="99" fill="#ebedf0"><title>2025-08-23: 0 commits</title></rect>
<rect class="day" width="11" height="11" x="492" y="15" fill="#ebedf0"><title>2025-08-24: 0 commits</title></rect>
<rect class="day" width="11" height="11" x="492" y="29" fill="#ebedf0"><title>2025-08-25: 0 commits</title></rect>
<rect class="day" width="11" height="11" x="492" y="43" fill="#ebedf0"><title>2025-08-26: 0 commits</title></rect>
<rect class="day" width="11" height="11" x="492" y="57" fill="#ebedf0"><title>2025-08-27: 0 commits</title></rect>
<rect class="day" width="11" height="11" x="492" y="71" fill="#ebedf0"><title>2025-08-28: 0 commits</title></rect>
<rect class="day" width="11" height="11" x="492" y="85" fill="#ebedf0"><title>2025-08-29: 0 commits</title></rect>
<rect class="day" width="11" height="11" x="492" y="99" fill="#ebedf0"><title>2025-08-30: 0 commits</title></rect>
<rect class="day" width="11" height="11" x="506" y="15" fill="#ebedf0"><title>2025-08-31: 0 commits</title></rect>
<rect class="day" width="11" height="11" x="506" y="29" fill="#ebedf0"><title>2025-09-01: 0 commits</title></rect>
<rect class="day" width="11" height="11" x="506" y="43" fill="#ebedf0"><title>2025-09-02: 0 commits</title></rect>
<rect class="day" width="11" height="11" x="506" y="57" fill="#ebedf0"><title>2025-09-03: 0 commits</title></rect>
<rect class="day" width="11" height="11" x="506" y="71" fill="#ebedf0"><title>2025-09-04: 0 commits</title></rect>
<rect class="day" width="11" height="11" x="506" y="85" fill="#ebedf0"><title>2025-09-05: 0 commits</title></rect>
<rect class="day" width="11" height="11" x="506" y="99" fill="#ebedf0"><title>2025-09-06: 0 commits</title></rect>
<rect class="day" width="11" height="11" x="520" y="15" fill="#9be9a8"><title>2025-09-07: 1 commits</title></rect>
<rect class="day" width="11" height="11" x="520" y="29" fill="#9be9a8"><title>2025-09-08: 3 commits</title></rect>
<rect class="day" width="11" height="11" x="520" y="43" fill="#9be9a8"><title>2025-09-09: 1 commits</title></rect>
<rect class="day" width="11" height="11" x="520" y="57" fill="#9be9a8"><title>2025-09-10: 1 commits</title></rect>
<rect class="day" width="11" height="11" x="520" y="71" fill="#ebedf0"><title>2025-09-11: 0 commits</title></rect>
<rect class="day" width="11" height="11" x="520" y="85" fill="#ebedf0"><title>2025-09-12: 0 commits</title></rect>
<rect class="day" width="11" height="11" x="520" y="99" fill="#ebedf0"><title>2025-09-13: 0 commits</title></rect>
<rect class="day" width="11" height="11" x="534" y="15" fill="#9be9a8"><title>2025-09-14: 1 commits</title></rect>
<rect class="day" width="11" height="11" x="534" y="29" fill="#ebedf0"><title>2025-09-15: 0 commits</title></rect>
<rect class="day" width="11" height="11" x="534" y="43" fill="#40c463"><title>2025-09-16: 6 commits</title></rect>
<rect class="day" width="11" height="11" x="534" y="57" fill="#ebedf0"><title>2025-09-17: 0 commits</title></rect>
<rect class="day" width="11" height="11" x="534" y="71" fill="#ebedf0"><title>2025-09-18: 0 commits</title></rect>
<rect class="day" width="11" height="11" x="534" y="85" fill="#ebedf0"><title>2025-09-19: 0 commits</title></rect>
<rect class="day" width="11" height="11" x="534" y="99" fill="#ebedf0"><title>2025-09-20: 0 commits</title></rect>
<rect class="day" width="11" height="11" x="548" y="15" fill="#ebedf0"><title>2025-09-21: 0 commits</title></rect>
<rect class="day" width="11" height="11" x="548" y="29" fill="#ebedf0"><title>2025-09-22: 0 commits</title></rect>
<rect class="day" width="11" height="11" x="548" y="43" fill="#ebedf0"><title>2025-09-23: 0 commits</title></rect>
<rect class="day" width="11" height="11" x="548" y="57" fill="#ebedf0"><title>2025-09-24: 0 commits</title></rect>
<rect class="day" width="11" height="11" x="548" y="71" fill="#ebedf0"><title>2025-09-25: 0 commits</title></rect>
<rect class="day" width="11" height="11" x="548" y="85" fill="#ebedf0"><title>2025-09-26: 0 commits</title></rect>
<rect class="day" width="11" height="11" x="548" y="99" fill="#ebedf0"><title>2025-09-27: 0 commits</title></rect>
<rect class="day" width="11" height="11" x="562" y="15" fill="#ebedf0"><title>2025-09-28: 0 commits</title></rect>
<rect class="day" width="11" height="11" x="562" y="29" fill="#9be9a8"><title>2025-09-29: 1 commits</title></rect>
<rect class="day" width="11" height="11" x="562" y="43" fill="#ebedf0"><title>2025-09-30: 0 commits</title></rect>
<rect class="day" width="11" height="11" x="562" y="57" fill="#ebedf0"><title>2025-10-01: 0 commits</title></rect>
<rect class="day" width="11" height="11" x="562" y="71" fill="#ebedf0"><title>2025-10-02: 0 commits</title></rect>
<rect class="day" width="11" height="11" x="562" y="85" fill="#ebedf0"><title>2025-10-03: 0 commits</title></rect>
<rect class="day" width="11" height="11" x="562" y="99" fill="#ebedf0"><title>2025-10-04: 0 commits</title></rect>
<rect class="day" width="11" height="11" x="576" y="15" fill="#ebedf0"><title>2025-10-05: 0 commits</title></rect>
<rect class="day" width="11" height="11" x="576" y="29" fill="#9be9a8"><title>2025-10-06: 2 commits</title></rect>
<rect class="day" width="11" height="11" x="576" y="43" fill="#ebedf0"><title>2025-10-07: 0 commits</title></rect>
<rect class="day" width="11" height="11" x="576" y="57" fill="#9be9a8"><title>2025-10-08: 1 commits</title></rect>
<rect class="day" width="11" height="11" x="576" y="71" fill="#30a14e"><title>2025-10-09: 8 commits</title></rect>
<rect class="day" width="11" height="11" x="576" y="85" fill="#9be9a8"><title>2025-10-10: 1 commits</title></rect>
<rect class="day" width="11" height="11" x="576" y="99" fill="#9be9a8"><title>2025-10-11: 1 commits</title></rect>
<rect class="day" width="11" height="11" x="590" y="15" fill="#9be9a8"><title>2025-10-12: 1 commits</title></rect>
<rect class="day" width="11" height="11" x="590" y="29" fill="#9be9a8"><title>2025-10-13: 1 commits</title></rect>
<rect class="day" width="11" height="11" x="590" y="43" fill="#9be9a8"><title>2025-10-14: 1 commits</title></rect>
<rect class="day" width="11" height="11" x="590" y="57" fill="#9be9a8"><title>2025-10-15: 1 commits</title></rect>
<rect class="day" width="11" height="11" x="590" y="71" fill="#30a14e"><title>2025-10-16: 7 commits</title></rect>
<rect class="day" width="11" height="11" x="590" y="85" fill="#9be9a8"><title>2025-10-17: 1 commits</title></rect>
<rect class="day" width="11" height="11" x="590" y="99" fill="#9be9a8"><title>2025-10-18: 1 commits</title></rect>
<rect class="day" width="11" height="11" x="604" y="15" fill="#9be9a8"><title>2025-10-19: 1 commits</title></rect>
<rect class="day" width="11" height="11" x="604" y="29" fill="#9be9a8"><title>2025-10-20: 1 commits</title></rect>
<rect class="day" width="11" height="11" x="604" y="43" fill="#9be9a8"><title>2025-10-21: 1 commits</title></rect>
<rect class="day" width="11" height="11" x="604" y="57" fill="#9be9a8"><title>2025-10-22: 1 commits</title></rect>
<rect class="day" width="11" height="11" x="604" y="71" fill="#9be9a8"><title>2025-10-23: 1 commits</title></rect>
<rect class="day" width="11" height="11" x="604" y="85" fill="#30a14e"><title>2025-10-24: 9 commits</title></rect>
<rect class="day" width="11" height="11" x="604" y="99" fill="#216e39"><title>2025-10-25: 17 commits</title></rect>
<rect class="day" width="11" height="11" x="618" y="15" fill="#9be9a8"><title>2025-10-26: 2 commits</title></rect>
<rect class="day" width="11" height="11" x="618" y="29" fill="#9be9a8"><title>2025-10-27: 2 commits</title></rect>
<rect class="day" width="11" height="11" x="618" y="43" fill="#9be9a8"><title>2025-10-28: 1 commits</title></rect>
<rect class="day" width="11" height="11" x="618" y="57" fill="#9be9a8"><title>2025-10-29: 1 commits</title></rect>
<rect class="day" width="11" height="11" x="618" y="71" fill="#9be9a8"><title>2025-10-30: 1 commits</title></rect>
<rect class="day" width="11" height="11" x="618" y="85" fill="#9be9a8"><title>2025-10-31: 1 commits</title></rect>
<rect class="day" width="11" height="11" x="618" y="99" fill="#9be9a8"><title>2025-11-01: 1 commits</title></rect>
<rect class="day" width="11" height="11" x="632" y="15" fill="#9be9a8"><title>2025-11-02: 1 commits</title></rect>
<rect class="day" width="11" height="11" x="632" y="29" fill="#9be9a8"><title>2025-11-03: 1 commits</title></rect>
<rect class="day" width="11" height="11" x="632" y="43" fill="#9be9a8"><title>2025-11-04: 1 commits</title></rect>
<rect class="day" width="11" height="11" x="632" y="57" fill="#9be9a8"><title>2025-11-05: 1 commits</title></rect>
<rect class="day" width="11" height="11" x="632" y="71" fill="#9be9a8"><title>2025-11-06: 1 commits</title></rect>
<rect class="day" width="11" height="11" x="632" y="85" fill="#9be9a8"><title>2025-11-07: 1 commits</title></rect>
<rect class="day" width="11" height="11" x="632" y="99" fill="#9be9a8"><title>2025-11-08: 1 commits</title></rect>
<rect class="day" width="11" height="11" x="646" y="15" fill="#9be9a8"><title>2025-11-09: 1 commits</title></rect>
<rect class="day" width="11" height="11" x="646" y="29" fill="#9be9a8"><title>2025-11-10: 1 commits</title></rect>
<rect class="day" width="11" height="11" x="646" y="43" fill="#9be9a8"><title>2025-11-11: 1 commits</title></rect>
<rect class="day" width="11" height="11" x="646" y="57" fill="#9be9a8"><title>2025-11-12: 1 commits</title></rect>
<rect class="day" width="11" height="11" x="646" y="71" fill="#9be9a8"><title>2025-11-13: 1 commits</title></rect>
<rect class="day" width="11" height="11" x="646" y="85" fill="#9be9a8"><title>2025-11-14: 1 commits</title></rect>
<rect class="day" width="11" height="11" x="646" y="99" fill="#9be9a8"><title>2025-11-15: 1 commits</title></rect>
<rect class="day" width="11" height="11" x="660" y="15" fill="#9be9a8"><title>2025-11-16: 1 commits</title></rect>
<rect class="day" width="11" height="11" x="660" y="29" fill="#9be9a8"><title>2025-11-17: 1 commits</title></rect>
<rect class="day" width="11" height="11" x="660" y="43" fill="#9be9a8"><title>2025-11-18: 1 commits</title></rect>
<rect class="day" width="11" height="11" x="660" y="57" fill="#9be9a8"><title>2025-11-19: 1 commits</title></rect>
<rect class="day" width="11" height="11" x="660" y="71" fill="#9be9a8"><title>2025-11-20: 1 commits</title></rect>
<rect class="day" width="11" height="11" x="660" y="85" fill="#9be9a8"><title>2025-11-21: 1 commits</title></rect>
<rect class="day" width="11" height="11" x="660" y="99" fill="#9be9a8"><title>2025-11-22: 1 commits</title></rect>
<rect class="day" width="11" height="11" x="674" y="15" fill="#9be9a8"><title>2025-11-23: 1 commits</title></rect>
<rect class="day" width="11" height="11" x="674" y="29" fill="#9be9a8"><title>2025-11-24: 1 commits</title></rect>
<rect class="day" width="11" height="11" x="674" y="43" fill="#9be9a8"><title>2025-11-25: 1 commits</title></rect>
<rect class="day" width="11" height="11" x="674" y="57" fill="#9be9a8"><title>2025-11-26: 1 commits</title></rect>
<rect class="day" width="11" height="11" x="674" y="71" fill="#9be9a8"><title>2025-11-27: 1 commits</title></rect>
<rect class="day" width="11" height="11" x="674" y="85" fill="#9be9a8"><title>2025-11-28: 1 commits</title></rect>
<rect class="day" width="11" height="11" x="674" y="99" fill="#9be9a8"><title>2025-11-29: 1 commits</title></rect>
<rect class="day" width="11" height="11" x="688" y="15" fill="#9be9a8"><title>2025-11-30: 1 commits</title></rect>
<rect class="day" width="11" height="11" x="688" y="29" fill="#9be9a8"><title>2025-12-01: 1 commits</title></rect>
<rect class="day" width="11" height="11" x="688" y="43" fill="#9be9a8"><title>2025-12-02: 1 commits</title></rect>
<rect class="day" width="11" height="11" x="688" y="57" fill="#9be9a8"><title>2025-12-03: 1 commits</title></rect>
<rect class="day" width="11" height="11" x="688" y="71" fill="#9be9a8"><title>2025-12-04: 1 commits</title></rect>
<rect class="day" width="11" height="11" x="688" y="85" fill="#9be9a8"><title>2025-12-05: 1 commits</title></rect>
<rect class="day" width="11" height="11" x="688" y="99" fill="#9be9a8"><title>2025-12-06: 1 commits</title></rect>
<rect class="day" width="11" height="11" x="702" y="15" fill="#9be9a8"><title>2025-12-07: 1 commits</title></rect>
<rect class="day" width="11" height="11" x="702" y="29" fill="#9be9a8"><title>2025-12-08: 1 commits</title></rect>
<rect class="day" width="11" height="11" x="702" y="43" fill="#9be9a8"><title>2025-12-09: 1 commits</title></rect>
<rect class="day" width="11" height="11" x="702" y="57" fill="#9be9a8"><title>2025-12-10: 1 commits</title></rect>
<rect class="day" width="11" height="11" x="702" y="71" fill="#9be9a8"><title>2025-12-11: 1 commits</title></rect>
<rect class="day" width="11" height="11" x="702" y="85" fill="#9be9a8"><title>2025-12-12: 1 commits</title></rect>
<rect class="day" width="11" height="11" x="702" y="99" fill="#9be9a8"><title>2025-12-13: 1 commits</title></rect>
<rect class="day" width="11" height="11" x="716" y="15" fill="#9be9a8"><title>2025-12-14: 1 commits</title></rect>
<rect class="day" width="11" height="11" x="716" y="29" fill="#9be9a8"><title>2025-12-15: 1 commits</title></rect>
<rect class="day" width="11" height="11" x="716" y="43" fill="#9be9a8"><title>2025-12-16: 1 commits</title></rect>
<rect class="day" width="11" height="11" x="716" y="57" fill="#9be9a8"><title>2025-12-17: 1 commits</title></rect>
<rect class="day" width="11" height="11" x="716" y="71" fill="#9be9a8"><title>2025-12-18: 1 commits</title></rect>
<rect class="day" width="11" height="11" x="716" y="85" fill="#9be9a8"><title>2025-12-19: 1 commits</title></rect>
<rect class="day" width="11" height="11" x="716" y="99" fill="#9be9a8"><title>2025-12-20: 1 commits</title></rect>
<rect class="day" width="11" height="11" x="730" y="15" fill="#9be9a8"><title>2025-12-21: 1 commits</title></rect>
<rect class="day" width="11" height="11" x="730" y="29" fill="#9be9a8"><title>2025-12-22: 1 commits</title></rect>
<rect class="day" width="11" height="11" x="730" y="43" fill="#9be9a8"><title>2025-12-23: 1 commits</title></rect>
<rect class="day" width="11" height="11" x="730" y="57" fill="#9be9a8"><title>2025-12-24: 1 commits</title></rect>
<rect class="day" width="11" height="11" x="730" y="71" fill="#9be9a8"><title>2025-12-25: 1 commits</title></rect>
<rect class="day" width="11" height="11" x="730" y="85" fill="#9be9a8"><title>2025-12-26: 1 commits</title></rect>
<rect class="day" width="11" height="11" x="730" y="99" fill="#9be9a8"><title>2025-12-27: 1 commits</title></rect>
<rect class="day" width="11" height="11" x="744" y="15" fill="#9be9a8"><title>2025-12-28: 1 commits</title></rect>
<rect class="day" width="11" height="11" x="744" y="29" fill="#9be9a8"><title>2025-12-29: 1 commits</title></rect>
<rect class="day" width="11" height="11" x="744" y="43" fill="#9be9a8"><title>2025-12-30: 1 commits</title></rect>
<rect class="day" width="11" height="11" x="744" y="57" fill="#9be9a8"><title>2025-12-31: 1 commits</title></rect>
<rect class="day" width="11" height="11" x="744" y="71" fill="#9be9a8"><title>2026-01-01: 1 commits</title></rect>
<rect class="day" width="11" height="11" x="744" y="85" fill="#9be9a8"><title>2026-01-02: 1 commits</title></rect>
<rect class="day" width="11" height="11" x="744" y="99" fill="#9be9a8"><title>2026-01-03: 1 commits</title></rect>
<rect class="day" width="11" height="11" x="758" y="15" fill="#9be9a8"><title>2026-01-04: 1 commits</title></rect>
<rect class="day" width="11" height="11" x="758" y="29" fill="#ebedf0"><title>2026-01-05: 0 commits</title></rect>
</g>
<text x="790" y="115" text-anchor="end" style="font-size:10px">Total: 224 commits</text>
</svg>